<svg width="58" height="58" viewBox="0 0 58 58" fill="none" xmlns="http://www.w3.org/2000/svg">
<path d="M55.5832 7.24989C53.2689 8.88229 50.7066 10.1308 47.9948 10.9474C46.5394 9.27387 44.6051 8.08773 42.4535 7.54938C40.3019 7.01102 38.037 7.14644 35.9649 7.93732C33.8928 8.72819 32.1136 10.1364 30.8679 11.9714C29.6222 13.8064 28.9701 15.9797 28.9998 18.1974V20.6141C24.7529 20.7242 20.5446 19.7823 16.7498 17.8722C12.955 15.9622 9.69144 13.1433 7.24984 9.66655C7.24984 9.66655 -2.41683 31.4166 19.3332 41.0832C14.3561 44.4616 8.42713 46.1556 2.4165 45.9166C24.1665 57.9999 50.7498 45.9166 50.7498 18.1249C50.7476 17.4517 50.6829 16.7802 50.5565 16.1191C53.023 13.6867 54.7635 10.6156 55.5832 7.24989Z" stroke="white" stroke-width="3" stroke-linecap="round" stroke-linejoin="round"/>
</svg>
