<svg width="58" height="58" viewBox="0 0 58 58" fill="none" xmlns="http://www.w3.org/2000/svg">
<path d="M41.0835 4.83325H16.9168C10.2434 4.83325 4.8335 10.2431 4.8335 16.9166V41.0832C4.8335 47.7567 10.2434 53.1666 16.9168 53.1666H41.0835C47.7569 53.1666 53.1668 47.7567 53.1668 41.0832V16.9166C53.1668 10.2431 47.7569 4.83325 41.0835 4.83325Z" stroke="white" stroke-width="3" stroke-linecap="round" stroke-linejoin="round"/>
<path d="M38.6668 27.4775C38.965 29.4888 38.6215 31.5429 37.685 33.3476C36.7486 35.1524 35.2669 36.6159 33.4507 37.53C31.6345 38.4442 29.5764 38.7624 27.5689 38.4393C25.5615 38.1163 23.707 37.1685 22.2693 35.7308C20.8316 34.2931 19.8838 32.4386 19.5608 30.4312C19.2377 28.4237 19.5559 26.3656 20.4701 24.5494C21.3842 22.7332 22.8477 21.2515 24.6525 20.3151C26.4572 19.3786 28.5113 19.0351 30.5226 19.3333C32.5742 19.6376 34.4735 20.5935 35.94 22.0601C37.4066 23.5266 38.3626 25.4259 38.6668 27.4775Z" stroke="white" stroke-width="3" stroke-linecap="round" stroke-linejoin="round"/>
<path d="M42.2915 15.7083H42.3157" stroke="white" stroke-width="6" stroke-linecap="round" stroke-linejoin="round"/>
</svg>
